<svg version="1.1" id="Layer_1" xmlns="http://www.w3.org/2000/svg" xmlns:xlink="http://www.w3.org/1999/xlink" x="0px" y="0px"
	 viewBox="0 0 1920 1080" style="enable-background:new 0 0 1920 1080;" xml:space="preserve">
<style type="text/css">
	.st0{opacity:0.3;fill:#FFBDCD;}
	.st1{opacity:0.5;fill:#FFBDCD;}
	.st2{fill:#FFBDCD;}
	.st3{opacity:0.6;fill:#FFBDCD;}
	.st4{fill:#FF5672;}
	.st5{fill:#F7F7F7;}
	.st6{fill:#FF8098;}
	.st7{fill:#B92D53;}
	.st8{fill:#C73F60;}
	.st9{fill:#FF5470;}
	.st10{fill:#3CA058;}
	.st11{fill:#71C68B;}
	.st12{fill:#85E5A0;}
	.st13{fill:#FFCB9C;}
	.st14{fill:#FF8098;}
	.st15{fill:#C1C1C1;}
	.st16{fill:#3D3D3D;}
	.st17{fill:#FF8098;}
	.st18{clip-path:url(#SVGID_00000080924278202463844000000017806446429256212372_);fill:#B92D53;}
	.st19{clip-path:url(#SVGID_00000080924278202463844000000017806446429256212372_);fill:#FF5470;}
	.st20{opacity:0.3;fill:#FF8098;}
	.st21{opacity:0.2;fill:#FF8098;}
	.st22{opacity:0.1;fill:#FF8098;}
	.st23{opacity:0.5;}
	.st24{fill:#CCCCCC;}
	.st25{opacity:0.2;}
	.st26{opacity:0.1;}
	.st27{fill:#A53555;}
	.st28{opacity:0.15;clip-path:url(#SVGID_00000178192708752352405500000011262946015908809623_);fill:#FF8098;}
	.st29{opacity:0.5;fill:#FF8098;}
	.st30{opacity:0.15;clip-path:url(#SVGID_00000137113512844623491610000018346987928315831229_);fill:#FF8098;}
</style>
<g>
	<defs>
		<rect id="SVGID_00000074414337454256739260000014817552281024363915_" x="3730.54" y="233.31" width="163.18" height="83.23"/>
	</defs>
	<clipPath id="SVGID_00000177480678863528462430000001962564113848859045_">
		<use xlink:href="#SVGID_00000074414337454256739260000014817552281024363915_"  style="overflow:visible;"/>
	</clipPath>
	<path style="opacity:0.15;clip-path:url(#SVGID_00000177480678863528462430000001962564113848859045_);fill:#FF8098;" d="
		M3953.52,296.19c-1.5-1.94-3.47-3.79-4.37-4.42c-2.77-1.94-6.65-2.13-9.6-0.49c-0.75-5.3-2.44-10.96-6.82-14.03
		c-2.81-1.96-6.37-2.57-9.79-2.52c-6.72,0.1-14.19,2.89-17.45,8.76c0.08-6.28-3.66-12.23-8.81-15.83
		c-5.15-3.6-11.55-5.07-17.83-5.27c-2.45-0.08-4.92,0.03-7.28,0.69c-2.64,0.74-5.05,2.16-7.29,3.75c-4.23,3-7.67,6.74-10.8,10.88
		c-2.36-3.53-5.92-6.07-9.55-8.26c-2.63-1.59-5.46-3.07-8.53-3.22c-2.93-0.14-5.79,0.95-8.36,2.37c-7.24,4-12.61,10.63-15.2,18.48
		c-4.54-0.73-9.3,0.81-12.88,3.7c-1.08,0.87-6.01,5.93-6.75,8.89c-2.6,1.47-4.94,3.16-7.05,5.12h177.16
		C3962.31,304.79,3964.13,300.18,3953.52,296.19z"/>
</g>
<path class="st17" d="M3756.26,558.03c-2.15-2.78-4.96-5.41-6.25-6.32c-3.96-2.77-9.51-3.05-13.72-0.7
	c-1.08-7.58-3.48-15.68-9.76-20.07c-4.02-2.81-9.1-3.68-14.01-3.61c-9.61,0.14-20.29,4.13-24.95,12.53
	c0.11-8.99-5.23-17.49-12.6-22.63c-7.37-5.14-16.51-7.25-25.49-7.54c-3.5-0.11-7.04,0.04-10.41,0.98
	c-3.78,1.06-7.22,3.09-10.43,5.36c-6.05,4.29-10.97,9.64-15.45,15.56c-3.38-5.04-8.46-8.68-13.66-11.82
	c-3.76-2.27-7.81-4.39-12.2-4.61c-4.19-0.21-8.28,1.36-11.96,3.39c-10.36,5.72-18.03,15.19-21.74,26.43
	c-6.5-1.05-13.3,1.16-18.41,5.3c-1.54,1.25-8.6,8.48-9.65,12.71c-3.72,2.1-7.06,4.52-10.08,7.32h253.33
	C3768.84,570.33,3771.44,563.74,3756.26,558.03z"/>
<path class="st17" d="M1278.28,315.08c-1.87-2.42-4.32-4.72-5.45-5.5c-3.45-2.41-8.28-2.66-11.95-0.61
	c-0.94-6.6-3.03-13.66-8.5-17.48c-3.5-2.45-7.93-3.21-12.2-3.14c-8.37,0.12-17.67,3.6-21.74,10.92c0.1-7.83-4.56-15.24-10.98-19.71
	c-6.42-4.48-14.38-6.31-22.21-6.57c-3.05-0.1-6.13,0.03-9.07,0.86c-3.29,0.92-6.29,2.69-9.08,4.67c-5.27,3.74-9.56,8.4-13.46,13.56
	c-2.94-4.39-7.37-7.56-11.9-10.29c-3.28-1.98-6.81-3.83-10.63-4.02c-3.65-0.18-7.21,1.18-10.41,2.95
	c-9.02,4.99-15.71,13.24-18.94,23.03c-5.66-0.91-11.59,1.01-16.04,4.61c-1.34,1.09-7.49,7.38-8.4,11.07
	c-3.24,1.83-6.15,3.94-8.78,6.38h220.69C1289.24,325.79,1291.51,320.05,1278.28,315.08z"/>
<path class="st29" d="M1575.42,179.91c-1.79-2.31-4.13-4.51-5.2-5.26c-3.3-2.3-7.91-2.54-11.42-0.59c-0.9-6.31-2.9-13.05-8.12-16.7
	c-3.34-2.34-7.58-3.06-11.66-3c-8,0.12-16.89,3.44-20.77,10.43c0.1-7.48-4.36-14.56-10.49-18.84c-6.14-4.28-13.75-6.03-21.22-6.27
	c-2.91-0.09-5.86,0.03-8.66,0.82c-3.15,0.88-6.01,2.57-8.68,4.46c-5.04,3.57-9.14,8.03-12.86,12.96c-2.81-4.2-7.05-7.22-11.37-9.84
	c-3.13-1.89-6.5-3.66-10.16-3.84c-3.49-0.17-6.89,1.13-9.95,2.82c-8.62,4.76-15.01,12.65-18.1,22c-5.41-0.87-11.07,0.96-15.33,4.41
	c-1.28,1.04-7.16,7.06-8.03,10.58c-3.1,1.74-5.88,3.76-8.39,6.1h210.89C1585.89,190.15,1588.06,184.67,1575.42,179.91z"/>
<path class="st29" d="M1030.63,483.08c-1.8-2.33-4.16-4.54-5.24-5.3c-3.32-2.32-7.97-2.56-11.51-0.59
	c-0.9-6.36-2.92-13.15-8.18-16.83c-3.37-2.36-7.63-3.09-11.74-3.03c-8.06,0.12-17.01,3.46-20.93,10.51
	c0.1-7.54-4.39-14.67-10.57-18.98c-6.18-4.31-13.85-6.08-21.38-6.32c-2.93-0.09-5.9,0.03-8.73,0.82c-3.17,0.89-6.05,2.59-8.74,4.5
	c-5.08,3.6-9.2,8.09-12.95,13.05c-2.83-4.23-7.1-7.28-11.46-9.91c-3.15-1.9-6.55-3.69-10.23-3.87c-3.51-0.17-6.95,1.14-10.03,2.84
	c-8.69,4.8-15.12,12.74-18.23,22.16c-5.45-0.88-11.15,0.97-15.44,4.44c-1.29,1.05-7.21,7.11-8.09,10.66
	c-3.12,1.76-5.92,3.79-8.45,6.14h212.44C1041.17,493.39,1043.35,487.87,1030.63,483.08z"/>
<path class="st20" d="M719.09,353.18c-1.22-1.58-2.82-3.08-3.56-3.6c-2.26-1.58-5.41-1.74-7.81-0.4c-0.61-4.31-1.98-8.92-5.55-11.42
	c-2.29-1.6-5.18-2.1-7.97-2.05c-5.47,0.08-11.55,2.35-14.2,7.13c0.07-5.11-2.98-9.95-7.17-12.88c-4.2-2.93-9.4-4.12-14.51-4.29
	c-1.99-0.06-4.01,0.02-5.92,0.56c-2.15,0.6-4.11,1.76-5.93,3.05c-3.45,2.44-6.25,5.49-8.79,8.86c-1.92-2.87-4.82-4.94-7.78-6.73
	c-2.14-1.29-4.45-2.5-6.94-2.62c-2.39-0.12-4.71,0.77-6.8,1.93c-5.9,3.26-10.26,8.65-12.37,15.04c-3.7-0.6-7.57,0.66-10.48,3.01
	c-0.88,0.71-4.89,4.82-5.49,7.23c-2.12,1.19-4.02,2.57-5.74,4.17h144.2C726.25,360.18,727.73,356.43,719.09,353.18z"/>
<path class="st20" d="M1805.58,762.55c-1.22-1.58-2.82-3.08-3.56-3.6c-2.26-1.58-5.41-1.74-7.81-0.4
	c-0.61-4.31-1.98-8.92-5.55-11.42c-2.29-1.6-5.18-2.1-7.97-2.05c-5.47,0.08-11.55,2.35-14.2,7.13c0.07-5.11-2.98-9.95-7.17-12.88
	c-4.19-2.93-9.4-4.12-14.51-4.29c-1.99-0.06-4.01,0.02-5.92,0.56c-2.15,0.6-4.11,1.76-5.93,3.05c-3.45,2.44-6.25,5.49-8.79,8.86
	c-1.92-2.87-4.82-4.94-7.78-6.73c-2.14-1.29-4.45-2.5-6.94-2.62c-2.39-0.12-4.71,0.77-6.8,1.93c-5.9,3.26-10.26,8.65-12.37,15.04
	c-3.7-0.6-7.57,0.66-10.48,3.01c-0.88,0.71-4.89,4.82-5.49,7.23c-2.12,1.19-4.02,2.57-5.74,4.17h144.2
	C1812.73,769.55,1814.22,765.8,1805.58,762.55z"/>
<path class="st22" d="M460.72,579.84c-1.5-1.94-3.47-3.79-4.37-4.42c-2.77-1.94-6.65-2.13-9.6-0.49c-0.75-5.3-2.44-10.96-6.82-14.03
	c-2.81-1.96-6.37-2.57-9.79-2.52c-6.72,0.1-14.19,2.89-17.45,8.76c0.08-6.28-3.66-12.23-8.81-15.83c-5.15-3.6-11.55-5.07-17.83-5.27
	c-2.45-0.08-4.92,0.03-7.28,0.69c-2.64,0.74-5.05,2.16-7.29,3.75c-4.23,3-7.67,6.74-10.8,10.88c-2.36-3.53-5.92-6.07-9.55-8.26
	c-2.63-1.59-5.46-3.07-8.53-3.22c-2.93-0.14-5.79,0.95-8.36,2.37c-7.24,4-12.61,10.63-15.2,18.48c-4.54-0.73-9.3,0.81-12.88,3.7
	c-1.08,0.87-6.01,5.93-6.75,8.89c-2.6,1.47-4.94,3.16-7.05,5.12h177.16C469.51,588.44,471.33,583.83,460.72,579.84z"/>
<path class="st20" d="M999.91,164.5c-1.22-1.58-2.82-3.08-3.56-3.6c-2.26-1.58-5.41-1.74-7.81-0.4c-0.61-4.31-1.98-8.92-5.55-11.42
	c-2.29-1.6-5.18-2.1-7.97-2.05c-5.47,0.08-11.55,2.35-14.2,7.13c0.07-5.11-2.98-9.95-7.17-12.88c-4.2-2.93-9.4-4.12-14.51-4.29
	c-1.99-0.06-4.01,0.02-5.92,0.56c-2.15,0.6-4.11,1.76-5.93,3.05c-3.45,2.44-6.25,5.49-8.79,8.86c-1.92-2.87-4.82-4.94-7.78-6.73
	c-2.14-1.29-4.45-2.5-6.94-2.62c-2.39-0.12-4.71,0.77-6.8,1.93c-5.9,3.26-10.26,8.65-12.37,15.04c-3.7-0.6-7.57,0.66-10.48,3.01
	c-0.88,0.71-4.89,4.82-5.49,7.23c-2.12,1.19-4.02,2.57-5.74,4.17h144.2C1007.07,171.5,1008.55,167.75,999.91,164.5z"/>
<g class="st23">
	<g>
		<path class="st14" d="M260.68,965.57c60.38,2.55,104.46-47.49,137.74-91.39c35.42-46.72,77.54-108.7,143.25-108.78
			c31.76-0.04,60.1,16.79,84.67,35.36c25.03,18.93,47.65,40.94,73.46,58.86c23.72,16.48,51.1,28.93,80.61,26.6
			c27.94-2.21,52.21-16.9,70.96-37.17c41.54-44.93,51.34-106.55,78.88-159.28c13.86-26.54,32.63-49.96,59.17-64.61
			c27.86-15.38,60.75-20.81,92.23-17.15c30.66,3.57,60.13,16.11,82.63,37.43c20.5,19.42,31.94,45.18,48.86,67.36
			c15.63,20.49,36.99,36.47,63.87,35.48c26.3-0.97,50.3-16.33,66.61-36.29c37.69-46.14,35.61-109.77,56.38-163.22
			c22.22-57.17,68.25-104.72,122.9-131.83c15-7.44,30.7-13.23,46.88-17.5c3.73-0.99,2.15-6.77-1.59-5.79
			c-57.8,15.27-109.13,51.04-144.21,99.37c-17.95,24.73-30.7,52.27-38.68,81.73c-8,29.54-12.07,60.2-22.3,89.13
			c-9.32,26.34-24.69,51.35-48.88,66.38c-26.31,16.34-58.01,16.17-81.58-4.94c-20.44-18.32-31.33-44.17-47.65-65.75
			c-16.08-21.25-37.44-37.68-62.25-47.47c-54.28-21.42-122.44-12.39-164.95,29.13c-43.75,42.74-53.1,106.09-80.04,158.59
			c-13.16,25.65-30.81,50.52-55.51,66.17c-27.46,17.4-60.55,18.45-89.99,5.37c-56.33-25.02-92.69-81-150.39-103.91
			c-26.6-10.56-55.21-10.39-81.63,0.63c-27.41,11.43-49.84,32.22-69.04,54.41c-38.85,44.89-68.9,104.18-126.12,128.75
			c-14.04,6.03-29.01,8.98-44.29,8.33C256.82,959.4,256.83,965.4,260.68,965.57L260.68,965.57z"/>
	</g>
</g>
<g class="st25">
	<g>
		<path class="st14" d="M1520.4,503.18c-48.72,27.48-70.36,84-86.26,134.6c-14.69,46.74-26.64,95.14-52.16,137.51
			c-11.77,19.54-26.65,37.64-45.72,50.46c-20.7,13.91-45.03,20.37-69.86,20.47c-31.65,0.13-62.63-10.85-86.58-31.72
			c-12.61-11-22.01-24.22-29.78-38.96c-7.57-14.36-14.1-29.45-24.04-42.41c-29.22-38.11-89.53-50.6-127.77-18.75
			c-31.89,26.56-43.61,70.99-59.59,107.58c-10.37,23.74-23.94,46.25-39.33,67.07c-18.94,25.61-43.13,48.02-74.19,57.43
			c-30.62,9.27-63.81,6.01-93.6-4.75c-15.05-5.44-29.3-12.9-42.48-21.97c-14.27-9.82-29.04-18.85-43.45-28.45
			c-27.09-18.06-49.47-44.5-82.66-51.31c-24.87-5.11-49.89,1.95-70.25,16.62c-9.95,7.17-18.79,15.79-26.44,25.36
			c-8.48,10.62-15.3,22.2-24.7,32.12c-20.2,21.3-45.14,37.2-67.23,56.36c-10.08,8.75-19.42,18.24-27.27,29.06
			c-2.11,2.91,2.72,5.69,4.81,2.81c16.96-23.41,41.37-39.96,63.74-57.71c11.34-9,22.46-18.38,32.23-29.11
			c9.06-9.95,15.66-21.6,24.23-31.9c16.3-19.59,38.57-35.9,64.41-39.21c13.76-1.76,27.73,0.49,40.53,5.71
			c17.09,6.97,29.9,19.17,44.14,30.43c13.24,10.47,27.52,19.48,41.72,28.56c13.87,8.87,27.13,18.86,41.66,26.64
			c26.6,14.23,56.93,22.61,87.22,21.67c29.92-0.93,57.89-11.69,80.76-30.97c23.49-19.79,40.6-46.06,56.07-72.28
			c21.38-36.24,30.61-78.59,54.12-113.67c11.19-16.69,26.35-30.74,46.14-36.06c26.19-7.03,55.92-0.19,77.13,16.35
			c26.52,20.68,33.65,54.83,53.62,80.54c18.25,23.49,45.33,40.12,74.19,46.92c48.1,11.34,98.25-3.7,131.26-40.39
			c31.3-34.8,47.56-80.87,61.22-124.83c15.99-51.48,28.75-108.58,65.8-149.79c9.02-10.03,19.4-18.57,31.15-25.2
			C1526.34,506.22,1523.53,501.41,1520.4,503.18L1520.4,503.18z"/>
	</g>
</g>
<g class="st26">
	<g>
		<path class="st14" d="M1563.83,561.25c-44.53,26-65.42,77.46-80.37,124.31c-16.47,51.62-26.11,107.51-55.06,154.13
			c-30.69,49.42-85.45,73.8-141.6,80.84c-29.21,3.66-60.16,3.54-88.74-4.08c-15.07-4.02-29.97-10.3-41.79-20.69
			c-9.89-8.69-17.24-19.62-23.94-30.85c-12.84-21.49-25.57-48.08-50.13-58.2c-20.61-8.5-41.51,0.8-57.49,14.3
			c-19.83,16.75-33.87,39.28-46.96,61.39c-13.92,23.52-26.59,47.83-42.06,70.39c-34.06,49.66-88.38,88.49-150.06,91.89
			c-31.34,1.73-61.71-8.34-87.97-25.04c-13.03-8.29-25.51-17.5-38.4-26.03c-13.72-9.07-27.4-18.31-39.7-29.29
			c-20.12-17.95-43.33-33.12-71.35-32.43c-22.45,0.56-43.07,11.29-59.42,26.17c-18.04,16.41-28.65,38.57-45.84,55.73
			c-19.01,18.97-41.42,34.01-61.2,52.1c-9.08,8.3-17.46,17.29-24.54,27.37c-2.03,2.89,2.72,5.63,4.73,2.76
			c15.4-21.94,37.34-38,57.94-54.69c10.21-8.27,20.3-16.76,29.44-26.21c8.73-9.02,15.54-18.97,22.61-29.27
			c13.31-19.41,31.89-36.88,54.53-44.53c25.66-8.67,51.82-1.69,73.4,13.7c13.01,9.28,24.24,20.79,37.27,30.13
			c13.29,9.52,27.21,18.12,40.65,27.42c24.35,16.84,49.06,31.36,78.81,36.04c58.18,9.15,119.24-19.77,158.69-61.53
			c37.34-39.53,56.47-91.33,88.29-134.75c13.61-18.57,33.18-40.75,57.63-43.34c29.1-3.09,47.11,25.88,59.85,47.54
			c12.78,21.71,25.58,42.94,48.7,54.95c26.33,13.68,57.15,17.09,86.44,16.65c52.64-0.8,109.71-15.42,149.32-51.79
			c40.29-37.01,55.3-92.88,69.74-143.68c14.01-49.3,27.56-104.07,62.71-143.17c8.34-9.28,17.88-17.24,28.66-23.53
			C1569.63,564.21,1566.88,559.47,1563.83,561.25L1563.83,561.25z"/>
	</g>
</g>
<g>
	<polygon class="st9" points="1480.52,465.84 1459.2,407.45 1691.07,342.91 	"/>
	<polygon class="st27" points="1480.52,465.84 1483.37,419.72 1691.07,342.91 	"/>
	<polygon class="st8" points="1483.37,419.72 1691.07,342.91 1555.19,468.55 	"/>
	<polygon class="st8" points="1459.2,407.45 1691.07,342.91 1407.53,381.2 	"/>
</g>
<g>
	<polygon class="st9" points="1057.25,630.61 1042.63,590.55 1201.73,546.27 	"/>
	<polygon class="st27" points="1057.25,630.61 1059.21,598.97 1201.73,546.27 	"/>
	<polygon class="st8" points="1059.21,598.97 1201.73,546.27 1108.49,632.48 	"/>
	<polygon class="st8" points="1042.63,590.55 1201.73,546.27 1007.17,572.54 	"/>
</g>
<g>
	<polygon class="st9" points="482.79,801.91 471.12,769.95 598.04,734.62 	"/>
	<polygon class="st27" points="482.79,801.91 484.35,776.66 598.04,734.62 	"/>
	<polygon class="st8" points="484.35,776.66 598.04,734.62 523.66,803.4 	"/>
	<polygon class="st8" points="471.12,769.95 598.04,734.62 442.83,755.58 	"/>
</g>
<g>
	<polygon class="st9" points="991.79,733.53 983.2,710 1076.62,684.01 	"/>
	<polygon class="st27" points="991.79,733.53 992.94,714.95 1076.62,684.01 	"/>
	<polygon class="st8" points="992.94,714.95 1076.62,684.01 1021.87,734.62 	"/>
	<polygon class="st8" points="983.2,710 1076.62,684.01 962.38,699.43 	"/>
</g>
<g>
	<polygon class="st9" points="264.64,878.67 256.05,855.14 349.46,829.14 	"/>
	<polygon class="st27" points="264.64,878.67 265.79,860.09 349.46,829.14 	"/>
	<polygon class="st8" points="265.79,860.09 349.46,829.14 294.72,879.76 	"/>
	<polygon class="st8" points="256.05,855.14 349.46,829.14 235.23,844.57 	"/>
</g>
<g>
	<polygon class="st9" points="723.48,781.78 714.89,758.26 808.31,732.26 	"/>
	<polygon class="st27" points="723.48,781.78 724.63,763.2 808.31,732.26 	"/>
	<polygon class="st8" points="724.63,763.2 808.31,732.26 753.56,782.88 	"/>
	<polygon class="st8" points="714.89,758.26 808.31,732.26 694.07,747.69 	"/>
</g>
<g>
	<polygon class="st9" points="474.67,878.97 468.43,861.86 536.34,842.96 	"/>
	<polygon class="st27" points="474.67,878.97 475.51,865.46 536.34,842.96 	"/>
	<polygon class="st8" points="475.51,865.46 536.34,842.96 496.54,879.76 	"/>
	<polygon class="st8" points="468.43,861.86 536.34,842.96 453.29,854.17 	"/>
</g>
<g>
	<defs>
		<rect id="SVGID_00000000901018508932305380000006782052509701101736_" x="1756.82" y="233.31" width="163.18" height="83.23"/>
	</defs>
	<clipPath id="SVGID_00000080886136900638062920000007210328752259973296_">
		<use xlink:href="#SVGID_00000000901018508932305380000006782052509701101736_"  style="overflow:visible;"/>
	</clipPath>
	<path style="opacity:0.15;clip-path:url(#SVGID_00000080886136900638062920000007210328752259973296_);fill:#FF8098;" d="
		M1979.8,296.19c-1.5-1.94-3.47-3.79-4.37-4.42c-2.77-1.94-6.65-2.13-9.6-0.49c-0.75-5.3-2.44-10.96-6.82-14.03
		c-2.81-1.96-6.37-2.57-9.79-2.52c-6.72,0.1-14.19,2.89-17.45,8.76c0.08-6.28-3.66-12.23-8.81-15.83
		c-5.15-3.6-11.55-5.07-17.83-5.27c-2.45-0.08-4.92,0.03-7.28,0.69c-2.64,0.74-5.05,2.16-7.29,3.75c-4.23,3-7.67,6.74-10.8,10.88
		c-2.36-3.53-5.92-6.07-9.55-8.26c-2.63-1.59-5.46-3.07-8.53-3.22c-2.93-0.14-5.79,0.95-8.36,2.37c-7.24,4-12.61,10.63-15.2,18.48
		c-4.54-0.73-9.3,0.81-12.88,3.7c-1.08,0.87-6.01,5.93-6.75,8.89c-2.6,1.47-4.94,3.16-7.05,5.12h177.16
		C1988.59,304.79,1990.41,300.18,1979.8,296.19z"/>
</g>
<path class="st17" d="M1782.54,558.03c-2.15-2.78-4.96-5.41-6.25-6.32c-3.96-2.77-9.51-3.05-13.72-0.7
	c-1.08-7.58-3.48-15.68-9.76-20.07c-4.02-2.81-9.1-3.68-14.01-3.61c-9.61,0.14-20.29,4.13-24.95,12.53
	c0.11-8.99-5.23-17.49-12.6-22.63c-7.37-5.14-16.51-7.25-25.49-7.54c-3.5-0.11-7.04,0.04-10.41,0.98
	c-3.78,1.06-7.22,3.09-10.43,5.36c-6.05,4.29-10.97,9.64-15.45,15.56c-3.38-5.04-8.46-8.68-13.66-11.82
	c-3.76-2.27-7.81-4.39-12.2-4.61c-4.19-0.21-8.28,1.36-11.96,3.39c-10.36,5.72-18.03,15.19-21.74,26.43
	c-6.5-1.05-13.3,1.16-18.41,5.3c-1.54,1.25-8.6,8.48-9.65,12.71c-3.72,2.1-7.06,4.52-10.08,7.32h253.33
	C1795.12,570.33,1797.72,563.74,1782.54,558.03z"/>
</svg>
